<?xml version="1.0" encoding="iso-8859-1"?>
<!-- Uploaded to: SVG Repo, www.svgrepo.com, Generator: SVG Repo Mixer Tools -->
<svg height="800px" width="800px" version="1.1" id="Layer_1" xmlns="http://www.w3.org/2000/svg" xmlns:xlink="http://www.w3.org/1999/xlink" 
	 viewBox="0 0 495 495" xml:space="preserve">
<g>
	<polygon style="fill:#9BC9FF;" points="247.5,197.105 247.5,297.895 297.731,247.5 	"/>
	<path style="fill:#9BC9FF;" d="M247.5,0v140.444L354.208,247.5L247.5,354.556V495C384.19,495,495,384.19,495,247.5
		S384.19,0,247.5,0z"/>
	<path style="fill:#BDDBFF;" d="M223.017,379.119l-28.33-28.238l52.813-52.986V197.105l-52.813-52.986l28.33-28.238l24.483,24.563V0
		C110.81,0,0,110.81,0,247.5S110.81,495,247.5,495V354.556L223.017,379.119z"/>
	<polygon style="fill:#2488FF;" points="194.687,144.119 247.5,197.105 297.731,247.5 247.5,297.895 194.687,350.881 
		223.017,379.119 247.5,354.556 354.208,247.5 247.5,140.444 223.017,115.881 	"/>
</g>
</svg>