<svg version="1.1" xmlns="http://www.w3.org/2000/svg" xmlns:xlink="http://www.w3.org/1999/xlink" width="40px" height="40px" viewBox="0,0,256,256"><g fill="none" fill-rule="nonzero" stroke="none" stroke-width="1" stroke-linecap="butt" stroke-linejoin="miter" stroke-miterlimit="10" stroke-dasharray="" stroke-dashoffset="0" font-family="none" font-weight="none" font-size="none" text-anchor="none" style="mix-blend-mode: normal"><g transform="scale(6.4,6.4)"><path d="M2.5,37.5v-30.293l4.707,-4.707h25.586l4.707,4.707v30.293z" fill="#04d976" stroke="none"></path><path d="M32.586,3l4.414,4.414v29.586h-34v-29.586l4.414,-4.414h25.172M33,2h-26l-5,5v31h36v-31l-5,-5z" fill="#009a52" stroke="none"></path><path d="M32.5,7.5v-5h0.293l4.707,4.707v0.293z" fill="#e4ffba" stroke="none"></path><path d="M33,3.414l3.586,3.586h-3.586v-3.586M33,2h-1v6h6v-1l-5,-5z" fill="#009a52" stroke="none"></path><path d="M2.5,7.5v-0.293l4.707,-4.707h0.293v5z" fill="#e4ffba" stroke="none"></path><path d="M7,3.414v3.586h-3.586l3.586,-3.586M8,2h-1l-5,5v1h6v-6z" fill="#009a52" stroke="none"></path><path d="M2,7.5h36" fill="none" stroke="#009a52"></path><g fill="#009a52" stroke="none"><path d="M24,12h-4h-4c-0.552,0 -1,0.448 -1,1c0,0.552 0.448,1 1,1h4h4c0.552,0 1,-0.448 1,-1c0,-0.552 -0.448,-1 -1,-1z"></path></g><g stroke="none"><path d="M7.5,2.5h25v5h-25z" fill="#ddf7b5"></path><path d="M32,3v4h-24v-4h24M33,2h-26v6h26v-6z" fill="#009a52"></path></g></g></g></svg>