<svg width="176" height="224" viewBox="0 0 176 224" fill="none" xmlns="http://www.w3.org/2000/svg">
<g clip-path="url(#clip0_118_3072)">
<rect width="176" height="224" fill="white"/>
<circle cx="147.5" cy="77.5" r="142.5" fill="url(#paint0_linear_118_3072)"/>
<path d="M188.131 205.394C173.984 212.36 157.448 215.033 141.097 213.555C107.403 210.646 76.9409 189.461 59.5868 160.925C39.8597 128.643 38.3026 91.9991 55.289 60.8213C83.5356 9.26136 152.59 -7.26063 194.07 35.5511C223.307 65.7323 224.055 110.614 195.291 137.41C172.536 158.673 139.039 161.538 115.616 140.753C100.568 125.86 93.5742 106.211 100.88 86.6231C108.4 66.7551 129.429 54.4967 148.804 58.8922C169.536 63.5677 183.254 85.9278 173.794 105.93C166.163 120.948 147.419 127.058 134.804 116.994C126.671 110.458 123.832 98.6866 129.935 90.6991C132.707 86.9859 137.032 84.8373 141.066 84.9386C137.604 86.9911 135.399 90.0667 134.559 93.1794C132.897 99.3738 136.401 105.011 141.313 107.607C147.55 111.11 156.918 108.019 160.437 99.6949C164.553 88.1348 155.239 77.9552 145.298 76.5229C135.996 75.1793 124.265 81.7819 120.649 93.5811C117.405 104.581 122.351 115.811 131.011 123.121C145.61 134.694 164.588 131.492 177.472 118.739C195.924 100.256 192.561 72.8095 174.628 54.5921C145.46 24.789 97.9777 39.2265 77.9617 73.5978C64.8448 95.4494 63.9242 123.385 78.165 150.346C92.0573 176.628 116.3 193.636 143.31 201.176C165.097 207.245 182.841 205.509 188.131 205.394Z" fill="white"/>
</g>
<defs>
<linearGradient id="paint0_linear_118_3072" x1="140.5" y1="-18.5" x2="171" y2="246" gradientUnits="userSpaceOnUse">
<stop stop-color="#35B6FF"/>
<stop offset="1" stop-color="#2656FF"/>
</linearGradient>
<clipPath id="clip0_118_3072">
<rect width="176" height="224" fill="white"/>
</clipPath>
</defs>
</svg>
